<svg xmlns="http://www.w3.org/2000/svg" viewBox="0 0 512 512" fill="#90d3c6"><path d="M134.097 404.633c-4.988 0-9.033 4.044-9.033 9.033v6.691c0 4.988 4.045 9.031 9.033 9.031h27.098c4.988 0 9.031-4.043 9.031-9.031v-6.691c0-4.989-4.043-9.033-9.031-9.033zm27.85-39.141c-4.989 0-9.033 4.044-9.033 9.033v6.691c0 4.988 4.044 9.031 9.033 9.031h29.189c4.988 0 9.031-4.043 9.031-9.031v-6.691c0-4.989-4.043-9.033-9.031-9.033zm8.697-39.141c-4.989 0-9.031 4.044-9.031 9.033v6.689c0 4.988 4.042 9.033 9.031 9.033h46.92c4.988 0 9.031-4.045 9.031-9.033v-6.689c0-4.989-4.043-9.033-9.031-9.033zm-6.605-39.14c-4.989 0-9.033 4.044-9.033 9.033v6.689c0 4.988 4.044 9.033 9.033 9.033h63.479c4.988 0 9.031-4.045 9.031-9.033v-6.689c0-4.989-4.043-9.033-9.031-9.033zm-28.52-39.141c-4.988 0-9.033 4.042-9.033 9.031v6.691c0 4.988 4.045 9.031 9.033 9.031h66.572c4.989 0 9.033-4.043 9.033-9.031v-6.691c0-4.989-4.044-9.031-9.033-9.031zm-30.318-39.141c-4.989 0-9.033 4.043-9.033 9.031v6.689c0 4.989 4.044 9.033 9.033 9.033h66.574c4.989 0 9.031-4.044 9.031-9.033v-6.689a9.03 9.03 0 0 0-9.031-9.031zm-25.426-39.142c-4.988 0-9.031 4.045-9.031 9.033v6.689c0 4.989 4.043 9.033 9.031 9.033h63.481c4.989 0 9.033-4.044 9.033-9.033v-6.689c0-4.988-4.044-9.033-9.033-9.033zm9.953-39.141c-4.988 0-9.031 4.045-9.031 9.033v6.689c0 4.989 4.043 9.033 9.031 9.033h46.92c4.988 0 9.033-4.044 9.033-9.033v-6.689c0-4.988-4.045-9.033-9.033-9.033zm26.43-39.141c-4.988 0-9.033 4.043-9.033 9.031v6.691c0 4.989 4.045 9.033 9.033 9.033h29.188c4.989 0 9.033-4.044 9.033-9.033v-6.691c0-4.988-4.044-9.031-9.033-9.031zm29.939-39.14c-4.988 0-9.031 4.043-9.031 9.031v6.691c0 4.989 4.043 9.033 9.031 9.033h27.1c4.989 0 9.031-4.044 9.031-9.033v-6.691a9.03 9.03 0 0 0-9.031-9.031zM264.633.011c-17.611-.208-35.389 2.519-51.539 6.76-9.366 2.679-24.737 7.613-34.272 14.813 3.793-2.72 8.217-4.721 12.357-6.629C216.291 4.722 244.13 1.307 271.04 3.945c37.707 4.023 68.512 23.73 74.629 63.102 2.262 12.617 3.094 25.871.998 38.473-5.568 36.777-35.87 57.717-68.764 69.412l-5.168 1.74c-2.139.178-3.924 1.849-4.168 4.063a4.58 4.58 0 0 0 4.049 5.051c8.514.946 17.143 2.535 25.531 4.391 16.409 3.71 32.455 8.787 47.799 15.625 46.666 20.578 79.874 56.708 86.24 108.498 8.499 60.281-17.249 112.729-67.424 146.541-42.038 28.878-93.705 40.467-144.164 42.568-47.307 1.983-109.653-3.303-145.858-36.873-22.358-21.518-20.88-47.499-5.898-70.316-9.646 14.623-15.166 32.401-8.998 49.398 5.79 16.676 19.818 28.959 34.602 37.805 38.059 21.871 83.027 27.926 126.328 28.553 90.606 1.16 199.572-37.168 227.885-132.08 8.852-31.067 7.891-64.655-1.758-95.432-19.837-63.353-81.441-97.173-143.93-105.715 39.75-15.954 61.869-52.739 57.434-96.031-1.953-24.945-11.616-49.398-32.494-64.328C309.642 5.396 287.276.278 264.633.011z"/></svg>