<svg xmlns="http://www.w3.org/2000/svg" xmlns:xlink="http://www.w3.org/1999/xlink" viewBox="0 0 512 512"><defs><clipPath id="A"><path d="M0 1116.444h1134.222V0H0z"/></clipPath><path id="B" d="M172.196 357.602c3.52 0 6.72 3.28 6.72 6.72 0 2.8-2.08 4.88-4.88 4.88-3.6 0-6.72-3.2-6.72-6.72 0-2.72 2-4.88 4.88-4.88zm-12.16-47.52h9.36l6.24 39.52h-9.36z"/><path id="C" d="M178.116 321.922c0-7.68 6.16-12.72 15.36-12.72 10.4 0 16.8 4.96 16.8 13.04 0 4.8-2.64 7.92-8.32 9.84l-6.64 2.16c-3.04 1.04-4.48 2.56-4.48 4.8 0 2.88 2.24 4.56 6.08 4.56 3.76 0 5.92-2 6-5.6h9.04c0 7.6-5.68 12.64-14.32 12.64-9.68 0-15.76-4.88-15.76-12.56 0-5.2 3.2-8.56 8.72-10.32l6.72-2.24c2.88-.96 3.92-2.08 3.92-4.32 0-2.96-2.88-4.88-7.12-4.88-4.16 0-6.8 2.08-6.96 5.6z"/><path id="D" d="M235.636 327.042c0-10.72 7.6-17.92 18.88-17.92 12.96 0 23.2 10.4 23.2 23.6 0 10.72-7.6 17.92-18.88 17.92-12.88 0-23.2-10.4-23.2-23.6zm9.6.72c0 8.16 5.92 14.64 13.12 14.64 6 0 9.76-4.08 9.76-10.4 0-8.08-5.84-14.56-13.04-14.56-6.08 0-9.84 4.08-9.84 10.32z"/><path id="E" d="M294.596 310.082l4.96 31.68h7.52l1.28 7.84h-7.52l1.92 12.24h-9.36l-1.92-12.24h-7.52l-1.28-7.84h7.52l-4.96-31.68z"/><path id="F" d="M326.196 309.122c8.96 0 16.8 5.44 19.52 13.68h-9.28c-1.68-3.76-5.28-5.92-9.76-5.92-6.08 0-9.36 3.76-9.36 10.48v.24l29.04.08.48 2.96c1.84 11.92-4.8 20-16.48 20-12.48 0-22.08-10.32-22.08-23.84 0-10.96 6.88-17.68 17.92-17.68zm3.6 33.84c5.76 0 9.04-3.68 8.16-9.28h-19.6c1.84 5.52 6.24 9.28 11.44 9.28z"/><path id="G" d="M381.716 349.842c-1.36.32-2.88.48-4.32.48-5.12 0-9.28-2.64-11.44-6.8l.32 6.08h-8.72l-6.24-39.52h9.36l3.12 19.52c1.2 7.6 6.16 11.44 12.96 11.44h3.52z"/><path id="H" d="M392.276 309.042c5.92 0 11.28 2.72 13.52 6.96l-.24-5.92h8.24l3.84 24.08c1.6 10.16-4.32 16.56-15.36 16.56-10.32 0-16.96-5.12-18.32-14.08h8.4c.64 4.48 3.68 6.72 8.96 6.72 5.44 0 8.08-2.72 7.28-7.68l-.08-.88-11.76-1.04c-10.48-.8-16.4-5.76-16.4-13.92 0-6.4 4.8-10.8 11.92-10.8zm3.6 7.2c-3.76 0-6 1.76-6 4.64 0 3.92 2.88 6.24 9.36 6.72l8.32.72-.32-2.16c-.88-6.08-5.28-9.92-11.36-9.92z"/><path id="I" d="M420.596 291.762h9.36l3.76 24.64c2-4.4 7.2-7.28 13.12-7.28 11.92 0 20.8 9.84 20.8 23.68 0 10.56-6.72 17.84-16.08 17.84-5.84 0-10.24-2.48-13.44-6.96l.32 5.92h-8.72zm15.2 35.68c0 8.4 5.76 14.96 13.04 14.96 5.76 0 9.36-4.08 9.36-10.16 0-8.32-5.68-14.8-12.88-14.8-5.92 0-9.52 3.84-9.52 10z"/><path id="J" d="M567.396 214.082l1.28 7.84h-19.44l23.2 23.84 1.28 7.84h-31.12l-1.28-7.84h19.2l-22.96-23.92-1.2-7.76z"/></defs><g transform="matrix(.451411 0 0 -.451411 -.000002 507.98764)"><path d="M0-8.889h1134.222v1134.222H0z" fill="#f4f2e4"/><g fill="#90d3c6"><path d="M151.956 334.082l1.36 8.96h-21.44l2.56 16.4h25.6l1.36 9.12h-35.28l-9.28-58.48h9.84l3.76 24z"/><use xlink:href="#B"/><use xlink:href="#C"/><use xlink:href="#B" x="55.68"/><use xlink:href="#D"/><use xlink:href="#E"/><use xlink:href="#F"/><use xlink:href="#G"/><use xlink:href="#H"/><use xlink:href="#I"/><use xlink:href="#B" x="312"/><use xlink:href="#H" x="111.04"/><path d="M594.116 310.082h10.24l-7.2 10.24c3.68 4.72 6.24 10.72 7.36 17.76h-9.28c-.64-4-1.76-7.44-3.28-10.4l-9.52 13.44c9.12 5.36 12.88 10.4 12.88 16.8 0 7.04-5.12 11.6-13.12 11.6-9.2 0-15.92-6.32-15.92-14.8 0-3.52 1.12-6.48 4.56-11.68-11.92-4.96-16.64-10.32-16.64-18.72 0-9.04 7.84-15.28 19.12-15.28 6.72 0 12.8 1.92 17.68 5.44zm-18.96 45.2c0 3.92 2.72 6.64 6.4 6.64 3.04 0 4.96-1.76 4.96-4.56 0-4.56-2.72-8.32-7.76-10.96-2.72 3.76-3.6 5.84-3.6 8.88zm-10.8-29.52c0 4.96 3.2 8.56 10.48 11.68l11.6-16.48c-3.2-2.48-7.04-3.76-11.44-3.76-6.64 0-10.64 3.2-10.64 8.56zm123.432 18.16c0 15.2-10.08 25.6-25.04 25.6-17.76 0-31.28-15.28-31.28-34.88 0-15.2 10.08-25.52 25.04-25.52 17.68 0 31.28 15.28 31.28 34.8zm-10.48-.88c0-13.6-8.64-24.32-19.92-24.32-9.52 0-15.44 6.56-15.44 16.88 0 13.6 8.64 24.32 19.92 24.32 9.6 0 15.44-6.4 15.44-16.88z"/><use xlink:href="#C" x="511.592"/><use xlink:href="#E" x="444.392"/><use xlink:href="#F" x="444.392"/><use xlink:href="#D" x="560.552"/><use xlink:href="#I" x="419.112"/><use xlink:href="#H" x="510.712"/><use xlink:href="#E" x="651.992"/><path d="M984.988 365.922h-9.04l-7.68-11.6h7.28zm-24.8-55.84h9.36l6.24 39.52h-9.36z"/><use xlink:href="#H" x="599.192"/><path d="M326.276 214.082h23.2c13.2 0 21.28 6.72 21.28 17.68 0 5.44-2.64 9.36-7.28 11.12 6.48 2.56 10.4 8.24 10.4 15.52 0 8.56-6.16 14.16-15.6 14.16h-22.72zm29.6 49.76c5.04 0 8-2.64 8-7.04 0-5.68-3.92-9.28-10.08-9.28h-12.4l2.56 16.32zm-3.6-24.8c5.44 0 8.4-2.64 8.4-7.28 0-5.6-4-8.96-10.8-8.96h-12.4l2.56 16.24z"/><use xlink:href="#F" x="68.24" y="-96"/><use xlink:href="#H" x="38.72" y="-96.001"/><use xlink:href="#E" x="180" y="-96"/><use xlink:href="#G" x="136.88" y="-96"/><use xlink:href="#B" x="358.88" y="-96"/><use xlink:href="#J"/><path d="M617.156 272.562h-9.76l-9.28-58.48h33.92l1.44 9.2h-24.08zm59.2-2.64h-9.04l-7.68-11.6h7.28zm-38-38.88c0-10.72 7.6-17.92 18.88-17.92 12.96 0 23.2 10.4 23.2 23.6 0 10.72-7.6 17.92-18.88 17.92-12.88 0-23.2-10.4-23.2-23.6zm9.6.72c0 8.16 5.92 14.64 13.12 14.64 6 0 9.76-4.08 9.76-10.4 0-8.08-5.84-14.56-13.04-14.56-6.08 0-9.84 4.08-9.84 10.32z"/><use xlink:href="#I" x="261.28" y="-96"/><use xlink:href="#F" x="425.52" y="-96"/><use xlink:href="#J" x="237.672"/></g><g clip-path="url(#A)" fill="#90d3c6"><path d="M493.51 850.125h-25.691c-4.729 0-8.563 3.834-8.563 8.564v6.343c0 4.729 3.834 8.563 8.563 8.563h25.691c4.73 0 8.564-3.834 8.564-8.563v-6.343c0-4.73-3.834-8.564-8.564-8.564m-26.404-37.109h-27.673c-4.729 0-8.563 3.834-8.563 8.564v6.343c0 4.729 3.834 8.563 8.563 8.563h27.673c4.73 0 8.564-3.834 8.564-8.563v-6.343c0-4.73-3.834-8.564-8.564-8.564m-8.246-37.108h-44.483c-4.729 0-8.563 3.834-8.563 8.564v6.343c0 4.729 3.834 8.563 8.563 8.563h44.483c4.729 0 8.564-3.834 8.564-8.563v-6.343c0-4.73-3.835-8.564-8.564-8.564m6.264-37.109h-60.183c-4.729 0-8.563 3.834-8.563 8.564v6.343c0 4.729 3.834 8.563 8.563 8.563h60.183c4.73 0 8.564-3.834 8.564-8.563v-6.343c0-4.73-3.834-8.564-8.564-8.564m27.038-37.109h-63.116c-4.73 0-8.564 3.834-8.564 8.564v6.343c0 4.729 3.834 8.563 8.564 8.563h63.116c4.73 0 8.564-3.834 8.564-8.563v-6.343c0-4.73-3.834-8.564-8.564-8.564m-35.721-162.073h25.691c4.729 0 8.563-3.834 8.563-8.564v-6.343c0-4.729-3.834-8.563-8.563-8.563h-25.691c-4.729 0-8.564 3.834-8.564 8.563v6.343c0 4.73 3.835 8.564 8.564 8.564"/><path d="M482.846 576.726h27.673c4.729 0 8.563-3.834 8.563-8.564v-6.343c0-4.729-3.834-8.563-8.563-8.563h-27.673c-4.73 0-8.564 3.834-8.564 8.563v6.343c0 4.73 3.834 8.564 8.564 8.564m8.246 37.109h44.483c4.729 0 8.563-3.834 8.563-8.564v-6.343c0-4.729-3.834-8.563-8.563-8.563h-44.483c-4.73 0-8.564 3.834-8.564 8.563v6.343c0 4.73 3.834 8.564 8.564 8.564m-6.264 37.108h60.183c4.729 0 8.563-3.834 8.563-8.564v-6.343c0-4.729-3.834-8.563-8.563-8.563h-60.183c-4.73 0-8.564 3.834-8.564 8.563v6.343c0 4.73 3.834 8.564 8.564 8.564m-27.039 37.109h63.116c4.73 0 8.564-3.834 8.564-8.564v-6.343c0-4.729-3.834-8.563-8.564-8.563h-63.116c-4.729 0-8.564 3.834-8.564 8.563v6.343c0 4.73 3.835 8.564 8.564 8.564m34.926 208.47c6.372 10.327 27.24 17.044 38.62 20.299 34.998 9.19 78.064 10.884 108.858-11.014 19.794-14.155 28.954-37.338 30.806-60.988 4.37-42.656-18.396-78.713-58.917-92.794-7.418-2.568-15.005-4.397-22.859-4.944l-.534 8.711c4.358.071 8.428-.13 12.714-.404 64.146-4.372 131.19-36.655 151.601-101.84 9.148-29.179 10.058-61.022 1.666-90.476-26.843-89.984-130.151-126.322-216.052-125.222-41.053.594-83.686 6.335-119.769 27.07-14.016 8.386-27.315 20.031-32.804 35.841-7.291 20.093 2.534 41.422 15.855 56.541 2.69 3.042 5.593 6.329 8.522 9.005.046-.042.044-.116-.002-.157-3.059-2.728-5.83-5.762-8.493-8.872-20.627-23.685-26.193-52.831-1.758-76.348 34.325-31.827 93.433-36.839 138.284-34.959 47.839 1.992 96.823 12.979 136.678 40.358 47.57 32.057 71.982 81.781 63.924 138.932-6.036 49.101-37.521 83.356-81.764 102.866-14.547 6.483-29.76 11.295-45.317 14.812-7.953 1.759-16.132 3.266-24.204 4.163a4.34 4.34 0 0 0-3.84 4.79c.231 2.099 1.925 3.682 3.953 3.851 1.226.379 3.682 1.232 4.899 1.649 31.186 11.088 59.914 30.941 65.193 65.808 1.987 11.947 1.199 24.514-.946 36.476-5.799 37.327-35.005 56.011-70.754 59.825-25.513 2.501-51.907-.737-75.715-10.439-6.543-3.015-13.863-6.237-17.845-12.54"/></g></g></svg>